<?xml version="1.0" encoding="UTF-8"?>
<svg width="29px" height="27px" viewBox="0 0 29 27" version="1.1" xmlns="http://www.w3.org/2000/svg" xmlns:xlink="http://www.w3.org/1999/xlink">
    <!-- Generator: Sketch 47.1 (45422) - http://www.bohemiancoding.com/sketch -->
    <title>check</title>
    <desc>Created with Sketch.</desc>
    <defs></defs>
    <g id="home" stroke="none" stroke-width="1" fill="none" fill-rule="evenodd">
        <g id="Desktop-HD" transform="translate(-528.000000, -1402.000000)" fill-rule="nonzero" fill="#FFFFFF">
            <g id="signup" transform="translate(-61.000000, 230.000000)">
                <g id="form" transform="translate(586.000000, 589.000000)">
                    <g id="Group" transform="translate(0.000000, 581.000000)">
                        <g id="check" transform="translate(3.000000, 2.000000)">
                            <path d="M28.8605769,3.234375 C28.9535259,3.42187605 29,3.5624997 29,3.65625 C29,3.7500003 28.9535259,3.89062395 28.8605769,4.078125 L11.5024038,26.578125 C11.2235564,26.8593763 11.014424,27 10.875,27 C10.642627,27 10.4102576,26.8828137 10.1778846,26.6484375 L0.348557692,17.0859375 L0.139423077,16.875 C0.0464740615,16.687499 0,16.5468753 0,16.453125 C0,16.4062499 0.0464740615,16.2890635 0.139423077,16.1015625 L0.278846154,15.9609375 C1.5801346,14.5546803 2.60256038,13.4765663 3.34615385,12.7265625 C3.62500134,12.4453112 3.81089714,12.3046875 3.90384615,12.3046875 C4.08974463,12.3046875 4.32211405,12.4453112 4.60096154,12.7265625 L10.1778846,18.2109375 L24.1201923,0.140625 C24.2131413,0.0468747 24.3525631,0 24.5384615,0 C24.6778855,0 24.8405438,0.0468747 25.0264423,0.140625 L28.8605769,3.234375 Z" id="Shape"></path>
                        </g>
                    </g>
                </g>
            </g>
        </g>
    </g>
</svg>