<?xml version="1.0" encoding="UTF-8"?>
<svg width="20px" height="20px" viewBox="0 0 20 20" version="1.1" xmlns="http://www.w3.org/2000/svg" xmlns:xlink="http://www.w3.org/1999/xlink">
    <!-- Generator: Sketch 47.1 (45422) - http://www.bohemiancoding.com/sketch -->
    <title>github</title>
    <desc>Created with Sketch.</desc>
    <defs></defs>
    <g id="home" stroke="none" stroke-width="1" fill="none" fill-rule="evenodd">
        <g id="Desktop-HD" transform="translate(-975.000000, -80.000000)" fill-rule="nonzero" fill="#FFFFFF">
            <g id="header" transform="translate(250.000000, 80.000000)">
                <g id="f233" transform="translate(653.000000, 0.000000)">
                    <path d="M74.9017857,3.03571429 C76.8660811,1.01189457 79.2321291,0 82,0 C84.7678709,0 87.1264783,1.00445429 89.0758929,3.01339286 C91.0253074,5.02233143 92,7.440462 92,10.2678571 C92,12.5000111 91.3601254,14.5089197 90.0803571,16.2946429 C88.8005889,18.080366 87.1637006,19.3154729 85.1696429,20 L84.9910714,20 C84.6339269,20 84.4553571,19.8214303 84.4553571,19.4642857 C84.4553571,19.4345237 84.4627974,19.0997057 84.4776786,18.4598214 C84.4925597,17.8199371 84.5,17.2321454 84.5,16.6964286 C84.5,15.8333291 84.2619071,15.1934546 83.7857143,14.7767857 C85.1547689,14.5982134 86.2633886,14.1592297 87.1116071,13.4598214 C87.9598257,12.7604131 88.3839286,11.517866 88.3839286,9.73214286 C88.3839286,8.66070886 88.04167,7.73809914 87.3571429,6.96428571 C87.6547634,6.10118629 87.6250017,5.19345714 87.2678571,4.24107143 L87.0446429,4.24107143 C86.3601157,4.24107143 85.5119097,4.59821086 84.5,5.3125 C83.6369006,5.07440371 82.8035754,4.95535714 82,4.95535714 C81.1964246,4.95535714 80.3630994,5.07440371 79.5,5.3125 C78.4880903,4.59821086 77.6398843,4.24107143 76.9553571,4.24107143 L76.7321429,4.24107143 C76.3749983,5.19345714 76.3452366,6.10118629 76.6428571,6.96428571 C75.95833,7.73809914 75.6160714,8.66070886 75.6160714,9.73214286 C75.6160714,11.517866 76.032734,12.7604131 76.8660714,13.4598214 C77.6994089,14.1592297 78.8005883,14.5982134 80.1696429,14.7767857 C79.8422603,15.1041683 79.6339291,15.5654731 79.5446429,16.1607143 C79.1874983,16.3392866 78.8005974,16.4285714 78.3839286,16.4285714 C77.6398771,16.4285714 77.059526,16.0565514 76.6428571,15.3125 C76.2559506,14.6577349 75.7351223,14.3005954 75.0803571,14.2410714 C74.455354,14.2410714 74.4404731,14.4494026 75.0357143,14.8660714 C75.4821451,15.1041677 75.8541651,15.6101151 76.1517857,16.3839286 C76.1815477,16.5029769 76.2410709,16.6443443 76.3303571,16.8080357 C76.4196434,16.9717271 76.6651766,17.1874986 77.0669643,17.4553571 C77.468752,17.7232157 77.952378,17.8571429 78.5178571,17.8571429 C78.934526,17.8571429 79.2619037,17.8273811 79.5,17.7678571 L79.5,19.5089286 C79.5,19.8363111 79.3363111,20 79.0089286,20 L78.8303571,20 C76.8065374,19.3154729 75.1622086,18.0878066 73.8973214,16.3169643 C72.6324343,14.546122 72,12.5297731 72,10.2678571 C72,7.440462 72.9672523,5.029772 74.9017857,3.03571429 Z" id="github"></path>
                </g>
            </g>
        </g>
    </g>
</svg>