<?xml version="1.0" encoding="UTF-8"?>
<svg width="93px" height="109px" viewBox="0 0 93 109" version="1.1" xmlns="http://www.w3.org/2000/svg" xmlns:xlink="http://www.w3.org/1999/xlink">
    <!-- Generator: Sketch 47.1 (45422) - http://www.bohemiancoding.com/sketch -->
    <title>liberate</title>
    <desc>Created with Sketch.</desc>
    <defs></defs>
    <g id="Page-1" stroke="none" stroke-width="1" fill="none" fill-rule="evenodd">
        <g id="Desktop-HD" transform="translate(-674.000000, -113.000000)" fill-rule="nonzero">
            <g id="Group-3" transform="translate(423.000000, 113.000000)">
                <g id="liberate" transform="translate(251.000000, 0.000000)">
                    <path d="M93,16.0294118 C93,12.7233456 89.9158955,9.61764706 86.1111052,9.61764706 C82.9342572,9.61764706 80.2868038,11.6301718 79.491301,14.3523185 C79.3701124,9.95054588 75.5174752,6.41176471 70.7586972,6.41176471 L70.4637269,6.41176471 C66.6896586,6.41176471 63.5019072,8.64613647 62.271421,11.7616129 C62.271421,11.7616129 61.9331897,3.20588235 53.5257652,3.20588235 L53.252249,3.20588235 C49.1367424,3.20588235 45.5457879,5.44612088 44.8965517,9.61764706 L44.8965517,11.2205882 C44.8965517,5.02361765 39.8713448,0 33.6724138,0 L33.6724138,0 C27.4734828,0 22.4482759,5.02361765 22.4482759,11.2205882 L22.4482759,19.2352941 L6.88889483,19.2352941 C3.08426483,19.2352941 0,22.1059374 0,25.6470588 L0,51.2941176 C0,62.5147059 17.222221,70.7297794 17.222221,83.3529412 L82.6666738,83.3529412 C82.6666738,83.3529412 93,39.2720588 93,16.0294118 Z" id="Shape" fill="#EEBC99"></path>
                    <path d="M19.2413793,38.4705882 L19.2413793,38.4705882 C17.4702424,38.4705882 16.0344828,37.0352826 16.0344828,35.2647059 L16.0344828,19.2352941 L22.4482759,19.2352941 L22.4482759,35.2647059 C22.4482759,37.0352826 21.0125162,38.4705882 19.2413793,38.4705882 Z" id="Shape" fill="#CE9C7A"></path>
                    <path d="M86.3647707,109 L13.0490224,109 C11.1556066,109 9.62068966,107.465569 9.62068966,105.572751 L9.62068966,86.7801576 C9.62068966,84.8873726 11.1556066,83.3529412 13.0490224,83.3529412 L86.3648028,83.3529412 C88.2581866,83.3529412 89.7931034,84.8873726 89.7931034,86.7801897 L89.7931034,105.572784 C89.7931034,107.465569 88.2581866,109 86.3647707,109 Z" id="Shape" fill="#9013FE"></path>
                </g>
            </g>
        </g>
    </g>
</svg>